<?xml version="1.0" encoding="UTF-8"?>
<svg version="1.1" xmlns="http://www.w3.org/2000/svg" width="961" height="961">
<path d="M0 0 C6.62770236 5.73687956 12.72613833 12.04342915 18.91294086 18.24680352 C20.51785918 19.84869846 22.12321066 21.45015953 23.72895569 23.05122578 C28.12483965 27.43684504 32.51448948 31.82865754 36.90310144 36.22155213 C41.15596065 40.4766274 45.41350504 44.72700656 49.67087597 48.9775664 C59.44939258 58.74086793 69.22116141 68.51090425 78.99083751 78.28305097 C86.53751124 85.83155973 94.08598356 93.37826567 101.63572109 100.92371011 C102.7216658 102.00905241 103.80760992 103.09439533 104.89355342 104.17973884 C106.5301227 105.81540083 108.16669267 107.45106213 109.80326649 109.08671956 C125.01354429 124.2885714 140.2217792 139.49246453 155.42575729 154.70061707 C155.99855237 155.27356853 156.57134745 155.84651998 157.16149995 156.4368336 C160.06441778 159.34055718 162.96731559 162.24430076 165.87020539 165.14805235 C166.73493584 166.01303942 166.73493584 166.01303942 167.61713558 166.89550098 C168.78293139 168.06164345 169.94872626 169.22778685 171.1145202 170.39393119 C189.24924273 188.53400942 207.39059399 206.6674346 225.5372237 224.79560113 C245.94207566 245.17971643 266.34190316 265.56884112 286.73438209 285.96533501 C288.91070884 288.14205708 291.08705248 290.31876227 293.26340663 292.49545693 C293.79924551 293.03138655 294.33508439 293.56731616 294.88716082 294.11948606 C302.96080725 302.19429632 311.0383429 310.2652021 319.11787975 318.33411813 C328.31213986 327.51630413 337.50110191 336.7037547 346.68313735 345.8981659 C351.36517169 350.58622894 356.0497063 355.27174046 360.74075878 359.95078492 C365.04103769 364.24018418 369.33424222 368.53653795 373.62208248 372.83837031 C375.16848428 374.38741328 376.71738258 375.93396921 378.26911765 377.47766961 C401.36161069 400.45894098 417.92984305 424.09943939 418.32897174 457.86103082 C418.21899164 480.59773486 410.65457433 502.12932331 396.01647174 519.61103082 C395.48408893 520.27747613 394.95170612 520.94392144 394.40319049 521.63056207 C380.22396468 538.78776371 358.39636017 550.59163823 336.2884444 553.39569879 C310.58644141 555.83167199 286.02940758 551.17045289 265.01647174 535.61103082 C253.75417516 526.05821551 243.54182013 515.26732718 233.12342858 504.81939423 C230.44856353 502.13808589 227.77072883 499.45974605 225.09325397 496.78104424 C220.46738124 492.15230104 215.84328314 487.52179131 211.22036922 482.89009309 C204.53602127 476.19313675 197.84838781 469.49946886 191.15987846 462.80666896 C180.30456576 451.94430939 169.45112607 441.08008057 158.59923542 430.2143023 C157.95133911 429.56557818 157.3034428 428.91685406 156.63591328 428.24847164 C152.03355175 423.64020566 147.4312566 419.03187337 142.82897174 414.42353082 C137.55257391 409.14019564 132.276139 403.8568975 126.99962604 398.5736773 C126.34919209 397.92241523 125.69875815 397.27115316 125.02861408 396.60015587 C114.20108609 385.75896419 103.37161069 374.91971986 92.5407334 364.08187431 C85.86328735 357.39994094 79.18762941 350.71623048 72.51424476 344.03024086 C67.95266744 339.46026727 63.38934994 334.89203641 58.82463048 330.32520137 C56.18826373 327.68748409 53.55275095 325.04892709 50.91939342 322.40820527 C48.07228342 319.55316261 45.22138207 316.70193707 42.37006366 313.85109735 C41.52904426 313.00648299 40.68802487 312.16186863 39.82152003 311.29165989 C39.06406574 310.53557995 38.30661144 309.7795 37.52620399 309.00050855 C36.86781856 308.34120133 36.20943314 307.68189411 35.53109664 307.00260788 C34.23654682 305.4982705 34.23654682 305.4982705 33.01647174 305.61103082 C33.01587466 306.77047485 33.01527757 307.92991889 33.01466238 309.12449759 C32.98807509 360.24404703 32.95653046 411.36359063 32.89983356 462.48311639 C32.89897605 463.2575348 32.89811854 464.03195322 32.89723505 464.82983886 C32.87856766 481.66167736 32.85901496 498.49351473 32.83855079 515.32535115 C32.82851997 523.5801641 32.81868469 531.83497727 32.80895221 540.08979058 C32.80798041 540.911226 32.8070086 541.73266142 32.80600734 542.57898882 C32.77462287 569.18465784 32.75614108 595.79031672 32.74437928 622.39600104 C32.73222005 649.74604661 32.70698602 677.0960499 32.6653956 704.4460673 C32.65952186 708.31265532 32.65379696 712.17924354 32.64816272 716.04583192 C32.64649253 717.1872865 32.64649253 717.1872865 32.64478861 718.35180078 C32.62727646 730.58133532 32.62347049 742.81083722 32.62484254 755.04038262 C32.62592886 767.34731412 32.61245056 779.65416242 32.58430746 791.96106236 C32.56946892 798.62430264 32.56144739 805.28742214 32.57066905 811.95068574 C32.57897906 818.05870796 32.56873734 824.16641604 32.54413512 830.27439178 C32.53846923 832.47655699 32.53943924 834.67875216 32.5479593 836.88090818 C32.65308698 866.61580154 24.11969738 890.64514364 3.45397174 912.61103082 C-16.95041698 932.51469834 -42.5231562 939.08486284 -70.30384076 938.82587457 C-95.06208583 938.27302055 -117.93842257 925.74397081 -134.86634076 908.07196832 C-149.70779222 890.82083469 -159.17609087 869.18864939 -159.10657609 846.29880738 C-159.10772993 845.36496716 -159.10888377 844.43112695 -159.11007258 843.46898854 C-159.11272712 840.3284214 -159.1082266 837.18790516 -159.10378277 834.04734063 C-159.10421871 831.77764678 -159.10509404 829.50795297 -159.10637194 827.23825943 C-159.10861244 820.99234511 -159.10460165 814.74644787 -159.09959388 808.50053573 C-159.09572573 802.45954939 -159.09655395 796.41856492 -159.09727572 790.37757785 C-159.09858964 778.01974588 -159.09524813 765.66191925 -159.08925831 753.30408883 C-159.08334238 741.06734082 -159.07949259 728.83059504 -159.0784055 716.59384561 C-159.07833676 715.83315366 -159.07826802 715.07246172 -159.0781972 714.2887185 C-159.07785887 710.4255876 -159.07755748 706.56245669 -159.07727032 702.69932579 C-159.07516961 675.33297855 -159.06843142 647.96663423 -159.05896771 620.60028863 C-159.04978415 594.01337472 -159.04270011 567.42646162 -159.0384599 540.83954644 C-159.03832837 540.0200989 -159.03819684 539.20065136 -159.03806133 538.35637208 C-159.03674282 530.12718325 -159.035467 521.89799441 -159.03422247 513.66880556 C-159.03168622 496.90482681 -159.02886497 480.14084812 -159.0258714 463.37686944 C-159.02573411 462.60607976 -159.02559682 461.83529008 -159.02545537 461.04114314 C-159.01625387 409.5644378 -159.00038778 358.08773415 -158.98352826 306.61103082 C-164.94560072 311.67565711 -170.53419292 317.02983122 -176.04482281 322.57898736 C-176.92312203 323.45925442 -177.80142125 324.33952148 -178.7063356 325.2464633 C-180.62151743 327.16667429 -182.53574737 329.08777967 -184.44838727 331.01051736 C-187.56193209 334.14049402 -190.67901864 337.26692884 -193.79650128 340.39298272 C-198.32345576 344.933024 -202.8487805 349.47468431 -207.37320912 354.01724267 C-214.53577723 361.20811846 -221.70420397 368.39313855 -228.87364972 375.57715631 C-231.33133538 378.03996571 -233.78899583 380.50280027 -236.24665749 382.96563363 C-236.86078054 383.58104272 -237.4749036 384.1964518 -238.10763644 384.83050965 C-245.08862897 391.8262173 -252.06873571 398.82280832 -259.04822552 405.82001519 C-259.68573964 406.45914406 -260.32325377 407.09827292 -260.9800865 407.75676933 C-271.30079055 418.10398412 -281.61585362 428.45680721 -291.92928851 438.81126675 C-302.54094812 449.46477425 -313.16034976 460.11052254 -323.7864452 470.7496314 C-330.32722809 477.29897404 -336.86177048 483.85441719 -343.38822442 490.41803935 C-347.86856927 494.9228057 -352.35632617 499.42010101 -356.84978808 503.91178295 C-359.43501068 506.49643228 -362.0169812 509.08410904 -364.59002316 511.68088937 C-388.67730472 535.97991248 -411.69569716 552.89358413 -447.29602826 553.92353082 C-461.67810239 553.62390427 -474.83381839 550.26526108 -487.98352826 544.61103082 C-488.89489544 544.23204644 -489.80626263 543.85306207 -490.74524701 543.46259332 C-505.9771254 536.54570168 -519.14022689 523.56752065 -527.98352826 509.61103082 C-528.56876263 508.73189019 -529.15399701 507.85274957 -529.75696576 506.94696832 C-543.0233739 485.91768379 -546.1430888 459.8297165 -541.01868451 435.73993707 C-535.21878206 411.37113143 -519.95160627 394.26564418 -502.64232647 377.03604913 C-501.07255806 375.4661245 -499.50323163 373.89575783 -497.93430728 372.32498968 C-493.63777452 368.02593308 -489.33505413 363.73311701 -485.03128052 359.44131088 C-480.86250831 355.28215265 -476.69847536 351.11825857 -472.53433327 346.95446548 C-464.01918599 338.44033686 -455.49947284 329.93079133 -446.97719395 321.42380166 C-438.53824146 312.99992926 -430.10159691 304.57375557 -421.66791737 296.14460397 C-421.14267138 295.61964059 -420.6174254 295.0946772 -420.07626287 294.55380584 C-417.40845496 291.88740258 -414.74069334 289.22095302 -412.07295305 286.55448212 C-393.18943559 267.68004701 -374.30166373 248.80987482 -355.41101849 229.94257379 C-354.26953009 228.80249295 -353.12804178 227.66241203 -351.98655356 226.52233101 C-351.42097893 225.95745399 -350.85540431 225.39257697 -350.27269106 224.81058246 C-347.41134722 221.95276742 -344.55000565 219.09495011 -341.68866742 216.23712945 C-340.83759575 215.38710547 -340.83759575 215.38710547 -339.96933071 214.51990929 C-326.78710109 201.3538641 -313.60615513 188.18653415 -300.42566693 175.01874566 C-299.86095933 174.45458418 -299.29625174 173.8904227 -298.7144318 173.30916542 C-285.81886892 160.42605119 -272.92390377 147.54233907 -260.03011429 134.65744996 C-259.48806257 134.11577363 -258.94601084 133.5740973 -258.38753331 133.01600653 C-253.51124754 128.14308736 -248.6349858 123.27014413 -243.75885076 118.39707412 C-231.60406549 106.24993244 -219.44780373 94.10427465 -207.28787225 81.96228443 C-198.8160686 73.5029703 -190.34588168 65.0420406 -181.87741166 56.5793892 C-177.29056069 51.99587085 -172.70286369 47.41320729 -168.11295712 42.83274865 C-163.91092126 38.63934691 -159.71119631 34.44364511 -155.5132863 30.2461132 C-153.99477916 28.72857133 -152.47541758 27.21188386 -150.95511376 25.69614194 C-148.88677985 23.63377637 -146.82158405 21.5683169 -144.75711739 19.50208116 C-144.168142 18.91630447 -143.57916661 18.33052779 -142.97234347 17.7270003 C-139.32336598 14.06668571 -135.87765317 10.27343785 -132.5055261 6.35642297 C-121.52510871 -6.23566736 -106.62831376 -14.14039598 -90.98352826 -19.38896918 C-89.97032513 -19.72928168 -88.95712201 -20.06959418 -87.91321576 -20.42021918 C-56.81115637 -28.83882172 -24.51238101 -19.79957214 0 0 Z " fill="#74B2E1" transform="translate(542.9835282564163,22.38896918296814)"/>
</svg>
